{
  "accessors": [
    {
      "bufferView": 2,
      "componentType": 5126,
      "count": 3688,
      "max": [
        6470.79931640625,
        350.0,
        -2062.187255859375
      ],
      "min": [
        1047.1064453125,
        -210.0,
        -6081.6943359375
      ],
      "type": "VEC3"
    },
    {
      "bufferView": 2,
      "byteOffset": 44256,
      "componentType": 5126,
      "count": 3688,
      "max": [
        1.0,
        1.0,
        1.0
      ],
      "min": [
        -1.0,
        -1.0,
        -1.0
      ],
      "type": "VEC3"
    },
    {
      "bufferView": 1,
      "componentType": 5126,
      "count": 3688,
      "max": [
        309.12176513671875,
        285.59454345703125
      ],
      "min": [
        -319.808349609375,
        -270.84942626953125
      ],
      "type": "VEC2"
    },
    {
      "bufferView": 1,
      "byteOffset": 29504,
      "componentType": 5126,
      "count": 3688,
      "max": [
        309.12176513671875,
        285.59454345703125
      ],
      "min": [
        -319.808349609375,
        -270.84942626953125
      ],
      "type": "VEC2"
    },
    {
      "bufferView": 1,
      "byteOffset": 59008,
      "componentType": 5126,
      "count": 3688,
      "max": [
        309.12176513671875,
        285.59454345703125
      ],
      "min": [
        -319.808349609375,
        -270.84942626953125
      ],
      "type": "VEC2"
    },
    {
      "bufferView": 1,
      "byteOffset": 88512,
      "componentType": 5126,
      "count": 3688,
      "max": [
        309.12176513671875,
        285.59454345703125
      ],
      "min": [
        -319.808349609375,
        -270.84942626953125
      ],
      "type": "VEC2"
    },
    {
      "bufferView": 1,
      "byteOffset": 118016,
      "componentType": 5126,
      "count": 3688,
      "max": [
        309.12176513671875,
        285.59454345703125
      ],
      "min": [
        -319.808349609375,
        -270.84942626953125
      ],
      "type": "VEC2"
    },
    {
      "bufferView": 1,
      "byteOffset": 147520,
      "componentType": 5126,
      "count": 3688,
      "max": [
        309.12176513671875,
        285.59454345703125
      ],
      "min": [
        -319.808349609375,
        -270.84942626953125
      ],
      "type": "VEC2"
    },
    {
      "bufferView": 1,
      "byteOffset": 177024,
      "componentType": 5126,
      "count": 3688,
      "max": [
        309.12176513671875,
        285.59454345703125
      ],
      "min": [
        -319.808349609375,
        -270.84942626953125
      ],
      "type": "VEC2"
    },
    {
      "bufferView": 1,
      "byteOffset": 206528,
      "componentType": 5126,
      "count": 3688,
      "max": [
        309.12176513671875,
        285.59454345703125
      ],
      "min": [
        -319.808349609375,
        -270.84942626953125
      ],
      "type": "VEC2"
    },
    {
      "bufferView": 1,
      "byteOffset": 236032,
      "componentType": 5126,
      "count": 3688,
      "max": [
        309.12176513671875,
        285.59454345703125
      ],
      "min": [
        -319.808349609375,
        -270.84942626953125
      ],
      "type": "VEC2"
    },
    {
      "bufferView": 1,
      "byteOffset": 265536,
      "componentType": 5126,
      "count": 3688,
      "max": [
        309.12176513671875,
        285.59454345703125
      ],
      "min": [
        -319.808349609375,
        -270.84942626953125
      ],
      "type": "VEC2"
    },
    {
      "bufferView": 0,
      "componentType": 5125,
      "count": 7443,
      "type": "SCALAR"
    }
  ],
  "asset": {
    "extras": {
      "author": "Trockk (https://sketchfab.com/Timrockk)",
      "license": "CC-BY-4.0 (http://creativecommons.org/licenses/by/4.0/)",
      "source": "https://sketchfab.com/3d-models/low-poly-drone-3a5eba0df3154257a712fad731a3e4d2",
      "title": "LOW POLY DRONE"
    },
    "generator": "Sketchfab-16.0.0",
    "version": "2.0"
  },
  "bufferViews": [
    {
      "buffer": 0,
      "byteLength": 29772,
      "name": "floatBufferViews",
      "target": 34963
    },
    {
      "buffer": 0,
      "byteLength": 295040,
      "byteOffset": 29772,
      "byteStride": 8,
      "name": "floatBufferViews",
      "target": 34962
    },
    {
      "buffer": 0,
      "byteLength": 88512,
      "byteOffset": 324812,
      "byteStride": 12,
      "name": "floatBufferViews",
      "target": 34962
    }
  ],
  "buffers": [
    {
      "byteLength": 413324,
      "uri": "drone.bin"
    }
  ],
  "materials": [
    {
      "doubleSided": true,
      "name": "FrontColor",
      "pbrMetallicRoughness": {
        "metallicFactor": 0.0,
        "roughnessFactor": 0.9302134966129227
      }
    }
  ],
  "meshes": [
    {
      "name": "Mesh1_FrontColor_0",
      "primitives": [
        {
          "attributes": {
            "NORMAL": 1,
            "POSITION": 0,
            "TEXCOORD_0": 2,
            "TEXCOORD_1": 3,
            "TEXCOORD_2": 4,
            "TEXCOORD_3": 5,
            "TEXCOORD_4": 6,
            "TEXCOORD_5": 7,
            "TEXCOORD_6": 8,
            "TEXCOORD_7": 9,
            "TEXCOORD_8": 10,
            "TEXCOORD_9": 11
          },
          "indices": 12,
          "material": 0,
          "mode": 4
        }
      ]
    }
  ],
  "nodes": [
    {
      "children": [
        1
      ],
      "matrix": [
        1.0,
        0.0,
        0.0,
        0.0,
        0.0,
        2.220446049250313e-16,
        -1.0,
        0.0,
        0.0,
        1.0,
        2.220446049250313e-16,
        0.0,
        0.0,
        0.0,
        0.0,
        1.0
      ],
      "name": "Sketchfab_model"
    },
    {
      "children": [
        2
      ],
      "matrix": [
        0.009999999776482582,
        0.0,
        0.0,
        0.0,
        0.0,
        0.0,
        0.009999999776482582,
        0.0,
        0.0,
        -0.009999999776482582,
        0.0,
        0.0,
        0.0,
        0.0,
        0.0,
        1.0
      ],
      "name": "b4544a6b68d54585b881bfc27dffbc8d.fbx"
    },
    {
      "children": [
        3
      ],
      "name": "RootNode"
    },
    {
      "children": [
        4
      ],
      "name": "Model"
    },
    {
      "children": [
        5
      ],
      "name": "Mesh1"
    },
    {
      "mesh": 0,
      "name": "Mesh1_FrontColor_0"
    }
  ],
  "scene": 0,
  "scenes": [
    {
      "name": "Sketchfab_Scene",
      "nodes": [
        0
      ]
    }
  ]
}
